<svg width="20" height="18" viewBox="0 0 20 18" fill="none" xmlns="http://www.w3.org/2000/svg">
<path d="M19.822 4.43101C19.73 4.29808 19.6072 4.18943 19.464 4.11437C19.3209 4.03931 19.1616 4.00007 19 4.00001H5.333L4.179 1.23001C4.02813 0.864919 3.77202 0.552988 3.44328 0.333944C3.11453 0.1149 2.72803 -0.00134561 2.333 1.17528e-05H0V2.00001H2.333L7.077 13.385C7.15299 13.5672 7.28118 13.7228 7.44542 13.8322C7.60967 13.9416 7.80263 14 8 14H16C16.417 14 16.79 13.741 16.937 13.352L19.937 5.35201C19.9937 5.20063 20.0129 5.03777 19.9928 4.87736C19.9728 4.71696 19.9142 4.5638 19.822 4.43101Z" fill="white"/>
<path d="M8.5 18C9.32843 18 10 17.3284 10 16.5C10 15.6716 9.32843 15 8.5 15C7.67157 15 7 15.6716 7 16.5C7 17.3284 7.67157 18 8.5 18Z" fill="white"/>
<path d="M15.5 18C16.3284 18 17 17.3284 17 16.5C17 15.6716 16.3284 15 15.5 15C14.6716 15 14 15.6716 14 16.5C14 17.3284 14.6716 18 15.5 18Z" fill="white"/>
</svg>
