<svg width="13" height="13" viewBox="0 0 13 13" fill="none" xmlns="http://www.w3.org/2000/svg">
<path fill-rule="evenodd" clip-rule="evenodd" d="M13 6.5C13 2.91005 10.0899 0 6.5 0C2.91005 0 0 2.91005 0 6.5C0 10.0899 2.91005 13 6.5 13C10.0899 13 13 10.0899 13 6.5ZM6.5 2.7625C6.62929 2.7625 6.75329 2.81386 6.84471 2.90529C6.93614 2.99671 6.9875 3.12071 6.9875 3.25V7.15C6.9875 7.27929 6.93614 7.40329 6.84471 7.49471C6.75329 7.58614 6.62929 7.6375 6.5 7.6375C6.37071 7.6375 6.24671 7.58614 6.15529 7.49471C6.06386 7.40329 6.0125 7.27929 6.0125 7.15V3.25C6.0125 3.12071 6.06386 2.99671 6.15529 2.90529C6.24671 2.81386 6.37071 2.7625 6.5 2.7625ZM6.5 9.75C6.67239 9.75 6.83772 9.68152 6.95962 9.55962C7.08152 9.43772 7.15 9.27239 7.15 9.1C7.15 8.92761 7.08152 8.76228 6.95962 8.64038C6.83772 8.51848 6.67239 8.45 6.5 8.45C6.32761 8.45 6.16228 8.51848 6.04038 8.64038C5.91848 8.76228 5.85 8.92761 5.85 9.1C5.85 9.27239 5.91848 9.43772 6.04038 9.55962C6.16228 9.68152 6.32761 9.75 6.5 9.75Z" fill="#D50000"/>
</svg>
